<?xml version="1.0" encoding="utf-8"?>
<!-- Generator: Adobe Illustrator 16.0.0, SVG Export Plug-In . SVG Version: 6.00 Build 0)  -->
<!DOCTYPE svg PUBLIC "-//W3C//DTD SVG 1.1//EN" "http://www.w3.org/Graphics/SVG/1.1/DTD/svg11.dtd">
<svg version="1.1" id="Layer_1" xmlns="http://www.w3.org/2000/svg" xmlns:xlink="http://www.w3.org/1999/xlink" x="0px" y="0px"
	 width="246px" height="93.329px" viewBox="27 34.455 246 93.329" enable-background="new 27 34.455 246 93.329"
	 xml:space="preserve">
<g>
	<path d="M171.392,115.827L171.392,115.827l-0.109,0.412c0,0.14-0.07,0.275-0.144,0.414l-0.789,1.613h1.042h1.114l-0.793-1.613
		c-0.035-0.139-0.105-0.274-0.142-0.414c-0.037-0.104-0.107-0.273-0.143-0.444L171.392,115.827z M143.268,114.866L143.268,114.866
		c-0.145,0.035-0.324,0.068-0.469,0.137c-0.321,0.105-0.646,0.343-0.897,0.584c-0.251,0.24-0.467,0.586-0.577,0.893
		c-0.144,0.31-0.251,0.69-0.251,1.065c0,0.377,0.072,0.721,0.216,1.063c0.107,0.274,0.36,0.653,0.612,0.893
		c0.25,0.24,0.576,0.413,0.897,0.551c0.146,0.068,0.324,0.136,0.469,0.136c0.216,0.07,0.431,0.07,0.646,0.07
		c0.324,0,0.719-0.07,1.009-0.171c0.357-0.138,0.683-0.346,0.969-0.585c0.254-0.239,0.47-0.619,0.612-0.893
		c0.144-0.343,0.219-0.688,0.219-1.063s-0.075-0.755-0.219-1.066c-0.142-0.307-0.358-0.651-0.612-0.893
		c-0.286-0.239-0.573-0.478-0.934-0.583c-0.288-0.137-0.721-0.204-1.043-0.204C143.699,114.798,143.485,114.798,143.268,114.866z
		 M236.373,115.999L236.373,115.999c-0.035-0.104-0.068-0.172-0.068-0.276l-0.109,0.412c-0.035,0.14-0.107,0.276-0.181,0.415
		l-0.754,1.647h1.112h1.046l-0.791-1.647c-0.035-0.139-0.109-0.243-0.146-0.379L236.373,115.999z M219.509,115.999L219.509,115.999
		c-0.035-0.104-0.072-0.172-0.072-0.276l-0.108,0.412c-0.037,0.14-0.105,0.276-0.178,0.415l-0.756,1.647h1.114h1.008l-0.757-1.647
		c-0.069-0.139-0.106-0.243-0.142-0.379L219.509,115.999z M212.031,115.003L212.031,115.003v1.615h0.468c0.321,0,1.22,0,1.22-0.824
		c0-0.412-0.288-0.791-1.112-0.791H212.031z M212.031,117.887L212.031,117.887v1.957h0.717c0.287,0,1.438,0,1.438-0.961
		c0-0.308-0.14-0.997-1.4-0.997L212.031,117.887L212.031,117.887z M203.756,118.814L203.756,118.814v-1.168h2.916v1.168H203.756z
		 M197.214,114.831L197.214,114.831v2.164c0.501,0,0.719,0,0.934-0.071c0.251-0.034,0.431-0.067,0.576-0.17
		c0.215-0.103,0.358-0.377,0.358-0.755c0-0.412-0.144-0.722-0.358-0.891c-0.146-0.072-0.325-0.174-0.576-0.174
		c-0.215-0.068-0.468-0.104-0.717-0.104H197.214z M243.748,113.871L243.748,113.871c-0.433,0.274-0.97,0.411-1.512,0.411
		c-0.575,0-1.079-0.137-1.545-0.411H243.748z M236.519,113.871L236.519,113.871l3.526,7.245h-1.298l-0.896-1.923h-1.479h-1.578
		l-0.902,1.923H232.6l3.521-7.245H236.519z M231.772,113.871L231.772,113.871v7.174l-1.293,0.071v-7.245H231.772z M225.262,113.871
		L225.262,113.871v2.884h2.773v-2.884h1.4v7.245h-1.4v-3.089h-2.773v3.089h-1.436v-7.245H225.262z M219.652,113.871L219.652,113.871
		l3.525,7.245h-1.293l-0.902-1.923h-1.473h-1.582l-0.899,1.923h-1.294l3.522-7.245H219.652z M213.683,113.871L213.683,113.871
		c0.286,0.102,0.576,0.204,0.826,0.445c0.36,0.31,0.648,0.856,0.648,1.374c0,0.928-0.611,1.271-0.863,1.408
		c0.503,0.169,1.329,0.582,1.329,1.819c0,0.893-0.501,1.442-0.967,1.751c-0.578,0.414-1.514,0.447-1.979,0.447h-2.087v-7.245
		H213.683L213.683,113.871z M198.541,113.871L198.541,113.871c0.146,0.035,0.251,0.035,0.325,0.035
		c0.253,0.066,0.539,0.239,0.719,0.343c0.216,0.172,0.431,0.413,0.539,0.686c0.146,0.276,0.217,0.618,0.217,0.929
		c0,0.583-0.109,1.062-0.433,1.405c-0.288,0.277-0.754,0.551-1.332,0.619l2.664,3.296h-1.441l-1.653-2.095l-0.898-1.167
		l-0.035-0.927v0.927l-0.11,3.262h-1.149v-7.312H198.541z M195.054,113.871L195.054,113.871v0.961h-3.057v1.854h3.057v1.066h-3.057
		v2.369h3.057v1.062h-4.026h-0.288v-7.312H195.054z M188.762,113.871L188.762,113.871c0.358,0.137,0.684,0.344,1.042,0.55
		l-0.074,1.201c-0.358-0.276-0.754-0.548-1.15-0.655c-0.396-0.136-0.861-0.203-1.259-0.203c-0.826,0-1.51,0.274-2.049,0.755
		c-0.503,0.48-0.828,1.236-0.828,2.026c0,0.789,0.255,1.44,0.791,1.956c0.506,0.482,1.189,0.755,1.943,0.755
		c0.468,0,0.936-0.069,1.329-0.204c0.362-0.139,0.793-0.38,1.19-0.688v1.34c-0.325,0.239-0.722,0.413-1.118,0.514
		c-0.396,0.105-0.861,0.138-1.294,0.138c-0.574,0-1.112-0.067-1.616-0.238c-0.54-0.173-0.971-0.447-1.331-0.827
		c-0.397-0.341-0.686-0.753-0.861-1.235c-0.11-0.171-0.147-0.307-0.22-0.513c-0.072-0.344-0.072-0.655-0.072-0.997
		c0-0.343,0-0.688,0.072-1.031c0.072-0.169,0.107-0.342,0.22-0.514c0.176-0.48,0.464-0.926,0.861-1.235
		c0.36-0.343,0.826-0.619,1.331-0.826c0.036-0.031,0.106-0.031,0.179-0.066H188.762L188.762,113.871z M175.708,113.871
		L175.708,113.871l1.401,1.339l2.517,2.299l0.611,0.551c0.146,0.138,0.251,0.274,0.397,0.413l0.466,0.445v-5.047h1.151v7.623
		l-2.626-2.369l-2.408-2.234l-0.108-0.067c-0.074-0.069-0.18-0.171-0.217-0.311c-0.144-0.136-0.288-0.306-0.392-0.412v5.081h-1.153
		v-7.312L175.708,113.871L175.708,113.871z M171.533,113.871L171.533,113.871l3.634,7.312h-1.329l-0.901-1.921h-1.547h-1.512
		l-0.898,1.921h-1.223l3.525-7.312H171.533z M166.751,113.871L166.751,113.871c0.359,0.137,0.72,0.344,1.043,0.55l-0.07,1.201
		c-0.362-0.276-0.723-0.548-1.118-0.655c-0.431-0.136-0.861-0.203-1.294-0.203c-0.827,0-1.51,0.274-2.014,0.755
		c-0.612,0.688-0.826,1.338-0.826,2.026c0,0.789,0.179,1.407,0.611,1.854c0.646,0.585,1.331,0.858,2.122,0.858
		c0.432,0,0.897-0.07,1.26-0.206c0.429-0.138,0.826-0.378,1.222-0.688v1.341c-0.325,0.239-0.688,0.412-1.081,0.513
		c-0.431,0.105-0.861,0.138-1.329,0.138c-0.576,0-1.151-0.066-1.618-0.238c-0.217-0.033-0.397-0.138-0.575-0.24
		c-0.288-0.138-0.539-0.344-0.719-0.586c-0.432-0.342-0.686-0.753-0.901-1.235c-0.072-0.172-0.141-0.308-0.215-0.514
		c-0.035-0.344-0.072-0.654-0.072-0.996c0-0.344,0.037-0.688,0.072-1.03c0.074-0.171,0.143-0.342,0.215-0.516
		c0.216-0.48,0.47-0.925,0.901-1.235c0.215-0.206,0.468-0.379,0.719-0.549c0.215-0.104,0.358-0.207,0.575-0.277
		c0.07-0.031,0.107-0.031,0.181-0.066H166.751z M150.172,113.871L150.172,113.871l2.123,4.326c0,0.032,0.037,0.172,0.105,0.344
		c0.074,0.172,0.182,0.342,0.254,0.584c0.11-0.139,0.214-0.447,0.395-0.755l2.159-4.498h0.253l0.898,3.81l0.899,3.503h-0.899h-0.287
		l-0.864-3.638c0-0.036-0.034-0.206-0.07-0.448c0-0.206-0.074-0.443-0.074-0.547c-0.035,0.203-0.105,0.341-0.105,0.514
		c-0.076,0.17-0.182,0.377-0.254,0.481l-1.977,3.948l-2.051-3.984c-0.035-0.17-0.144-0.341-0.215-0.48
		c-0.035-0.139-0.145-0.344-0.18-0.479c0,0.136,0,0.341,0,0.479c0,0.173-0.074,0.345-0.109,0.517l-0.863,3.637h-1.112l1.724-7.312
		L150.172,113.871L150.172,113.871z M145.281,113.871L145.281,113.871c0.074,0.035,0.145,0.035,0.181,0.066
		c0.503,0.208,0.971,0.483,1.331,0.86c0.396,0.413,0.72,0.824,0.898,1.235c0.217,0.481,0.36,0.997,0.36,1.513
		c0,0.481-0.109,1.029-0.324,1.44c-0.179,0.481-0.539,0.928-0.935,1.271c-0.36,0.376-0.828,0.653-1.331,0.825
		c-0.503,0.206-1.042,0.273-1.547,0.273c-0.215,0-0.43,0-0.646,0c-0.324-0.034-0.685-0.139-0.936-0.273
		c-0.541-0.172-0.97-0.449-1.367-0.825c-0.358-0.344-0.683-0.789-0.862-1.236c-0.215-0.412-0.323-0.961-0.323-1.476
		c0-0.516,0.107-1.031,0.323-1.513c0.18-0.446,0.505-0.892,0.862-1.235c0.396-0.377,0.864-0.652,1.367-0.825
		c0.072-0.035,0.181-0.066,0.251-0.102H145.281z M138.124,113.871c0.359,0.137,0.72,0.344,1.045,0.55l-0.074,1.201
		c-0.323-0.276-0.753-0.548-1.114-0.655c-0.395-0.136-0.862-0.203-1.294-0.203c-0.395,0-0.72,0.068-1.081,0.171
		c-0.359,0.139-0.683,0.343-0.969,0.584c-0.504,0.48-0.792,1.236-0.792,2.026c0,0.789,0.251,1.44,0.755,1.956
		c0.287,0.276,0.61,0.517,1.005,0.619c0.325,0.103,0.648,0.138,0.973,0.138c0.467,0,0.9-0.07,1.293-0.206
		c0.397-0.138,0.827-0.378,1.188-0.688v1.341c-0.288,0.239-0.718,0.412-1.078,0.513c-0.396,0.105-0.863,0.138-1.294,0.138
		c-0.395,0-0.72,0-1.082-0.066c-0.179-0.035-0.395-0.071-0.537-0.172c-0.541-0.172-0.973-0.446-1.368-0.826
		c-0.361-0.342-0.682-0.753-0.863-1.235c-0.179-0.445-0.287-0.995-0.287-1.51c0-0.55,0.108-1.1,0.287-1.546
		c0.182-0.48,0.502-0.926,0.863-1.235c0.395-0.343,0.862-0.619,1.368-0.826c0.035,0,0.106-0.031,0.177-0.066H138.124
		L138.124,113.871z"/>
	<path d="M167.757,107.896L167.757,107.896l-0.682-0.651c-0.143-0.104-0.252-0.276-0.36-0.414c-0.107-0.104-0.25-0.275-0.36-0.412
		v5.115h-1.147v-7.655l2.552,2.405l2.337,2.094c0.109,0.139,0.254,0.274,0.396,0.412c0.109,0.136,0.324,0.311,0.435,0.479v-5.117
		h0.466h0.684v7.657l-0.684-0.583L167.757,107.896z M171.427,112.531L171.427,112.531l-0.896,0.788h-0.65l0.972-1.372h0.538h0.576
		l1.043,1.372h-0.685L171.427,112.531z M175.167,105.803L175.167,105.803c-0.575,0.55-0.863,1.269-0.863,2.06
		c0,0.79,0.253,1.439,0.756,1.956c0.611,0.55,1.259,0.792,1.976,0.792c0.507,0,0.899-0.104,1.297-0.242
		c0.396-0.102,0.824-0.378,1.188-0.652v1.305c-0.292,0.241-0.721,0.447-1.083,0.515c-0.356,0.102-0.826,0.174-1.257,0.174
		c0.431,0.205,0.721,0.305,0.936,0.445c0.179,0.169,0.321,0.409,0.321,0.685c0,0.277-0.143,0.516-0.321,0.654
		c-0.254,0.139-0.538,0.206-0.936,0.206c-0.216,0-0.432-0.035-0.646-0.035c-0.183-0.034-0.466-0.104-0.756-0.171v-0.517
		c0.29,0.035,0.573,0.14,0.723,0.14c0.211,0,0.429,0,0.569,0c0.183,0,0.325,0,0.362-0.038c0.144-0.067,0.179-0.169,0.179-0.272
		c0-0.138-0.035-0.242-0.179-0.274c-0.072-0.033-0.18-0.068-0.323-0.068l-0.289-0.035l-0.108-0.719
		c-0.431-0.036-0.828-0.106-1.187-0.241c-0.143-0.036-0.251-0.07-0.358-0.104c-0.36-0.207-0.721-0.41-1.008-0.753
		c-0.358-0.31-0.684-0.757-0.827-1.203c-0.217-0.483-0.323-1.03-0.323-1.546c0-0.552,0.108-1.064,0.323-1.546
		c0.144-0.446,0.469-0.894,0.827-1.236c0.289-0.238,0.685-0.478,1.008-0.62l0.358-0.168c0.468-0.207,1.009-0.347,1.584-0.347
		c0.467,0.036,0.897,0.106,1.293,0.206c0.397,0.139,0.826,0.345,1.222,0.586l-0.072,1.203c-0.323-0.277-0.752-0.518-1.116-0.655
		c-0.394-0.101-0.859-0.205-1.257-0.205C176.352,105.114,175.708,105.388,175.167,105.803z M135.606,108.616L135.606,108.616h1.042
		l-0.788-1.647c-0.039-0.138-0.109-0.242-0.109-0.378c-0.145-0.274-0.181-0.343-0.181-0.445l-0.108,0.41
		c-0.035,0.138-0.143,0.277-0.178,0.413l-0.792,1.648L135.606,108.616L135.606,108.616z M135.606,104.051L135.606,104.051
		l3.705,7.484h-1.33l-0.862-1.924h-1.513h-1.544l-0.935,1.924h-1.295l3.74-7.656L135.606,104.051z M143.268,109.545L143.268,109.545
		c-0.253-0.621-0.324-1.168-0.324-1.683c0-0.552,0.071-1.065,0.289-1.546c0.213-0.514,0.503-0.929,0.862-1.236
		c0.396-0.344,0.828-0.62,1.33-0.788c0.505-0.207,1.043-0.347,1.583-0.347c0.467,0,0.934,0.105,1.332,0.205
		c0.43,0.141,0.825,0.347,1.223,0.586l-0.073,1.203c-0.358-0.275-0.72-0.516-1.114-0.655c-0.433-0.1-0.864-0.204-1.26-0.204
		c-0.862,0-1.544,0.308-2.05,0.789c-0.538,0.482-0.828,1.2-0.828,1.992c0,0.79,0.253,1.439,0.721,1.956
		c0.54,0.515,1.223,0.792,2.015,0.792c0.433,0,0.897-0.103,1.294-0.242c0.36-0.101,0.792-0.378,1.187-0.651v1.304
		c-0.323,0.241-0.686,0.448-1.079,0.515c-0.433,0.138-0.864,0.173-1.331,0.173c-0.576,0-1.114-0.072-1.619-0.239
		c-0.502-0.207-0.97-0.448-1.33-0.858C143.737,110.368,143.447,109.956,143.268,109.545z M152.655,105.254L152.655,105.254
		c-0.18-0.036-0.468-0.068-0.721-0.068l-0.178,2.125c0.467,0,0.719,0,0.9-0.033c0.286-0.068,0.502-0.102,0.607-0.206
		c0.219-0.103,0.325-0.379,0.325-0.754c0-0.415-0.106-0.686-0.325-0.86C153.123,105.388,152.907,105.285,152.655,105.254z
		 M152.655,109.407L152.655,109.407l-0.865-1.136l-0.142,3.264h-1.151v-7.384h1.69c0.179,0,0.323,0.037,0.468,0.037
		c0.324,0,0.575,0,0.79,0.069c0.252,0.067,0.507,0.203,0.687,0.345c0.251,0.169,0.394,0.409,0.535,0.651
		c0.148,0.273,0.256,0.65,0.256,0.925c0,0.62-0.18,1.1-0.471,1.411c-0.286,0.308-0.755,0.548-1.328,0.617l2.659,3.329h-1.401
		L152.655,109.407z M156.035,104.151L156.035,104.151h0.324h0.933v7.384h-0.933h-0.324V104.151z M161.25,106.146L161.25,106.146
		l-0.11,0.41l-0.141,0.413l-0.791,1.648h1.042h1.116l-0.827-1.648c0-0.136-0.074-0.241-0.111-0.377
		c-0.035-0.069-0.105-0.172-0.176-0.308v-0.139H161.25z M161.25,109.611L161.25,109.611h-1.51l-0.899,1.924h-1.298l3.707-7.656
		l1.833,3.812l1.905,3.846h-1.33l-0.575-1.202l-0.288-0.722L161.25,109.611L161.25,109.611z M135.606,95.57L135.606,95.57
		c-0.359,0.137-0.683,0.376-0.969,0.653c-0.541,0.479-0.792,1.166-0.792,1.957c0,0.788,0.251,1.511,0.792,1.991
		c0.286,0.308,0.61,0.515,0.969,0.65c0.325,0.104,0.686,0.138,1.081,0.138c0.683,0,1.329-0.17,1.69-0.445
		c0.395-0.343,0.646-0.756,0.646-1.303l-1.905-0.107l0.035-1.028h3.058c0,0.48,0.036,0.649,0.036,0.72
		c0,1.03-0.325,1.82-0.936,2.405c-0.612,0.516-1.509,0.858-2.624,0.858c-0.395,0-0.756-0.035-1.081-0.103
		c-0.216,0-0.431-0.069-0.609-0.139c-0.504-0.205-0.935-0.479-1.33-0.826c-0.326-0.341-0.647-0.754-0.828-1.233
		c-0.18-0.517-0.287-1.033-0.287-1.547c0-0.547,0.107-1.097,0.287-1.511c0.182-0.479,0.502-0.892,0.863-1.269
		c0.395-0.346,0.826-0.655,1.332-0.825l0.572-0.172c0.361-0.068,0.686-0.103,1.081-0.103c0.573,0,1.15,0.137,1.617,0.308
		c0.468,0.24,0.9,0.55,1.259,0.964l-0.936,0.651c-0.25-0.241-0.54-0.479-0.826-0.618c-0.361-0.137-0.721-0.204-1.115-0.204
		C136.292,95.434,135.931,95.467,135.606,95.57z M135.606,102.746L135.606,102.746l0.686,0.856h-0.613l-1.547-1.338h1.187
		L135.606,102.746z M143.268,95.605L143.268,95.605c-0.215-0.035-0.505-0.104-0.791-0.104l-0.181,2.163c0.502,0,0.755,0,0.972-0.034
		c0.253-0.071,0.394-0.106,0.503-0.208c0.215-0.103,0.358-0.412,0.358-0.754c0-0.413-0.143-0.723-0.358-0.858
		C143.662,95.706,143.485,95.638,143.268,95.605z M143.268,99.826L143.268,99.826l-0.936-1.27l-0.144,3.296h-1.148v-7.348h1.689
		c0.18,0,0.396,0,0.541,0c0.288,0,0.503,0.033,0.685,0.066c0.25,0.07,0.501,0.207,0.718,0.347c0.217,0.207,0.395,0.445,0.539,0.688
		c0.145,0.273,0.215,0.618,0.215,0.926c0,0.586-0.144,1.1-0.467,1.373c-0.287,0.344-0.72,0.584-1.295,0.654l2.626,3.296h-1.401
		L143.268,99.826z M152.655,100.271L152.655,100.271c-0.107,0.415-0.322,0.79-0.573,1.03c-0.54,0.517-1.404,0.756-2.448,0.756
		c-1.005,0-1.834-0.239-2.374-0.719c-0.502-0.517-0.756-1.237-0.756-2.234v-4.602h1.223v4.465c0,0.653,0.181,1.168,0.469,1.512
		c0.32,0.31,0.826,0.479,1.438,0.479c0.648,0,1.115-0.169,1.474-0.479c0.288-0.343,0.467-0.858,0.467-1.512v-4.465h1.08l0.18,4.602
		C152.834,99.554,152.763,99.933,152.655,100.271z M156.36,95.57L156.36,95.57c-0.18-0.035-0.47-0.068-0.72-0.068h-0.29v2.058h0.29
		c0.25,0,0.54,0,0.72-0.034c0.286,0,0.504-0.068,0.646-0.137c0.251-0.138,0.358-0.41,0.358-0.788c0-0.377-0.107-0.689-0.358-0.824
		C156.864,95.671,156.646,95.605,156.36,95.57z M156.36,98.557L156.36,98.557h-0.435h-0.25h-0.469v3.296h-1.15v-7.348h1.869
		c0.146,0,0.325,0,0.435,0c0.357,0,0.646,0.033,0.825,0.066c0.252,0.07,0.507,0.207,0.719,0.312c0.217,0.14,0.431,0.412,0.54,0.688
		c0.142,0.274,0.216,0.653,0.216,0.961c0,0.345-0.035,0.687-0.179,0.961c-0.107,0.276-0.36,0.55-0.577,0.69
		c-0.214,0.136-0.431,0.239-0.682,0.272C157.006,98.523,156.717,98.557,156.36,98.557z M161.25,101.716L161.25,101.716
		c-0.396-0.172-0.79-0.445-1.079-0.79c-0.396-0.378-0.723-0.789-0.899-1.235c-0.219-0.448-0.323-0.965-0.323-1.479
		s0.106-1.027,0.323-1.478c0.177-0.479,0.504-0.925,0.899-1.268c0.323-0.312,0.684-0.551,1.079-0.723
		c0.719-0.274,1.294-0.411,1.833-0.411c0.505,0.034,1.043,0.137,1.582,0.274c0.468,0.17,0.936,0.516,1.294,0.859
		c0.396,0.377,0.721,0.822,0.935,1.268c0.182,0.449,0.323,0.964,0.323,1.478c0,0.479-0.106,0.997-0.323,1.441
		c-0.179,0.482-0.539,0.895-0.935,1.272c-0.358,0.378-0.826,0.653-1.294,0.858c-0.539,0.173-1.077,0.274-1.582,0.274
		c-0.539,0-1.114-0.102-1.581-0.274L161.25,101.716z M161.25,96.083L161.25,96.083c-0.433,0.413-0.648,0.755-0.754,1.067
		c-0.146,0.307-0.216,0.685-0.216,1.062c0,0.345,0.035,0.756,0.18,1.029c0.106,0.347,0.357,0.653,0.609,0.895
		c0.433,0.378,0.684,0.515,0.899,0.584c0.36,0.103,0.719,0.206,1.116,0.206c0.358,0,0.719-0.071,1.041-0.171
		c0.325-0.139,0.686-0.345,0.935-0.619c0.251-0.241,0.466-0.548,0.613-0.895c0.143-0.273,0.25-0.685,0.25-1.029
		c0-0.378-0.107-0.755-0.25-1.062c-0.147-0.312-0.362-0.655-0.613-0.895c-0.249-0.241-0.576-0.445-0.935-0.585
		c-0.285-0.101-0.683-0.204-1.041-0.204c-0.397-0.033-0.756,0.104-1.116,0.204C161.751,95.776,161.5,95.911,161.25,96.083z
		 M179.626,111.535L179.626,111.535l3.631-7.656l3.742,7.656h-1.33l-0.865-1.924h-1.547h-1.51l-0.897,1.924H179.626z
		 M183.257,108.616L183.257,108.616h1.081l-0.791-1.647c-0.035-0.138-0.07-0.242-0.108-0.378c-0.072-0.069-0.107-0.171-0.182-0.309
		l-0.105,0.273l-0.181,0.413l-0.752,1.647H183.257z M191.028,98.969L191.028,98.969h1.079l-0.793-1.648
		c-0.035-0.136-0.107-0.273-0.144-0.377c-0.037-0.068-0.107-0.207-0.143-0.343l-0.144,0.309c0,0.104-0.109,0.275-0.145,0.411
		l-0.791,1.648H191.028z M191.028,94.3L191.028,94.3l3.701,7.553h-1.294l-0.899-1.919h-1.508h-1.512l-0.937,1.919h-1.294l3.742-7.62
		V94.3L191.028,94.3z M197.214,95.57L197.214,95.57c-0.183-0.035-0.434-0.068-0.686-0.068h-0.288v2.058h0.288
		c0.252,0,0.503,0,0.686-0.034c0.322,0,0.534-0.068,0.682-0.137c0.109-0.068,0.18-0.172,0.252-0.309
		c0.074-0.102,0.107-0.275,0.107-0.479c0-0.172-0.074-0.345-0.107-0.518c-0.035-0.137-0.141-0.238-0.252-0.307
		C197.748,95.671,197.536,95.605,197.214,95.57z M197.214,98.557L197.214,98.557h-0.396h-0.253h-0.468v3.296h-1.15v-7.348h1.871
		c0.145,0,0.285,0,0.396,0c0.394,0,0.646,0.033,0.824,0.066c0.36,0.14,0.538,0.207,0.754,0.312c0.182,0.14,0.397,0.412,0.54,0.688
		c0.108,0.274,0.218,0.653,0.218,0.961c0,0.345-0.037,0.687-0.179,0.961c-0.146,0.276-0.397,0.55-0.579,0.69
		c-0.216,0.136-0.394,0.239-0.646,0.272C197.896,98.523,197.608,98.557,197.214,98.557z M204.007,95.467L204.007,95.467
		c-0.427-0.033-0.826,0.104-1.149,0.204c-0.325,0.139-0.646,0.344-0.899,0.585c-0.25,0.239-0.468,0.582-0.573,0.895
		c-0.145,0.307-0.216,0.685-0.216,1.062c0,0.345,0.035,0.756,0.144,1.029c0.143,0.347,0.396,0.653,0.646,0.895
		c0.253,0.274,0.574,0.446,0.899,0.584c0.323,0.103,0.723,0.206,1.116,0.206c0.358,0,0.719-0.071,1.044-0.171
		c0.321-0.139,0.682-0.345,0.934-0.619c0.251-0.241,0.472-0.548,0.613-0.895c0.107-0.273,0.251-0.685,0.251-1.029
		c0-0.378-0.144-0.755-0.251-1.062c-0.142-0.312-0.362-0.655-0.613-0.895c-0.252-0.241-0.575-0.445-0.934-0.585
		C204.728,95.57,204.332,95.467,204.007,95.467z M204.007,102.059L204.007,102.059c-0.609,0-1.149-0.102-1.615-0.274
		c-0.541-0.205-0.972-0.48-1.367-0.858c-0.358-0.378-0.682-0.789-0.899-1.235c-0.18-0.448-0.289-0.965-0.289-1.479
		s0.109-1.027,0.289-1.478c0.218-0.479,0.541-0.925,0.899-1.268c0.431-0.344,0.861-0.654,1.367-0.826
		c0.466-0.171,1.006-0.308,1.582-0.308c0.538,0.034,1.042,0.137,1.545,0.274c0.466,0.17,0.937,0.516,1.332,0.859
		c0.397,0.377,0.719,0.822,0.898,1.268c0.218,0.449,0.325,0.964,0.325,1.478c0,0.479-0.072,0.997-0.29,1.441
		c-0.178,0.482-0.536,0.895-0.934,1.272c-0.396,0.378-0.866,0.653-1.332,0.858C205.016,101.957,204.512,102.059,204.007,102.059z
		 M209.008,94.503L209.008,94.503h1.293v7.349h-1.293V94.503z M215.336,95.434L215.336,95.434c-0.36,0-0.754,0.137-1.077,0.237
		c-0.325,0.139-0.646,0.344-0.901,0.585c-0.25,0.239-0.466,0.582-0.61,0.895c-0.108,0.307-0.216,0.685-0.216,1.062
		c0,0.345,0.074,0.756,0.18,1.029c0.146,0.347,0.396,0.653,0.646,0.895c0.255,0.274,0.574,0.446,0.901,0.584
		c0.323,0.103,0.717,0.206,1.077,0.206c0.397,0,0.72-0.071,1.08-0.171c0.288-0.139,0.684-0.345,0.935-0.619
		c0.251-0.241,0.468-0.548,0.576-0.895c0.143-0.273,0.25-0.685,0.25-1.029c0-0.378-0.107-0.755-0.25-1.062
		c-0.108-0.312-0.325-0.655-0.576-0.895c-0.251-0.241-0.609-0.445-0.935-0.585c-0.289-0.101-0.683-0.204-1.08-0.204V95.434z
		 M215.336,102.059L215.336,102.059c-0.539,0-1.077-0.102-1.548-0.274c-0.536-0.205-1.006-0.48-1.364-0.858
		c-0.394-0.378-0.684-0.789-0.901-1.235c-0.176-0.448-0.285-0.965-0.285-1.479s0.07-1.027,0.285-1.478
		c0.218-0.479,0.508-0.925,0.901-1.268c0.396-0.344,0.863-0.654,1.364-0.826c0.471-0.171,1.009-0.308,1.548-0.308
		c0.54,0.034,1.08,0.137,1.584,0.274c0.466,0.17,0.932,0.516,1.329,0.859c0.36,0.377,0.721,0.822,0.901,1.268
		c0.178,0.449,0.323,0.964,0.323,1.478c0,0.479-0.072,0.997-0.288,1.441c-0.181,0.482-0.576,0.895-0.937,1.272
		c-0.397,0.378-0.863,0.653-1.329,0.858C216.416,101.957,215.878,102.059,215.336,102.059z M177.11,98.181L177.11,98.181
		c0-0.449-0.074-0.86-0.217-1.201c-0.144-0.379-0.392-0.653-0.648-0.896c-0.217-0.172-0.501-0.307-0.791-0.412
		c-0.07,0-0.179,0-0.286,0c-0.288-0.033-0.684-0.101-1.151-0.101h-0.433h-0.433v5.219h1.009c0.396,0,0.756,0,1.008-0.034
		c0.107,0,0.216-0.035,0.321-0.068c0.29-0.07,0.578-0.207,0.756-0.378c0.255-0.24,0.504-0.551,0.648-0.895
		C177.035,99.104,177.11,98.692,177.11,98.181z M177.11,95.262L177.11,95.262c0.396,0.309,0.753,0.685,0.97,1.2
		c0.216,0.481,0.356,1.098,0.356,1.752c0,0.618-0.141,1.201-0.356,1.681c-0.217,0.516-0.574,0.928-0.97,1.271
		c-0.36,0.272-0.758,0.445-1.188,0.55c-0.213,0.034-0.431,0.103-0.754,0.137c-0.323,0-0.789,0-1.294,0h-0.29h-1.724v-7.348h1.724
		c0.611,0,1.187,0,1.584,0.066c0.286,0.038,0.541,0.07,0.719,0.07c0.466,0.139,0.863,0.309,1.185,0.55L177.11,95.262z
		 M179.338,94.503L179.338,94.503h0.288h3.631h0.396v0.999h-0.396h-2.659v1.887h2.659h0.396v1.031h-0.396h-2.659v2.369h2.659h0.396
		v1.062h-0.396h-3.631h-0.288V94.503z M242.632,111.673L242.632,111.673l0.972,1.373h-0.541l-0.934-1.373h-0.539v1.373h-0.433
		v-2.988h1.369c0.572,0,1.112,0.139,1.112,0.789C243.639,111.432,243.208,111.637,242.632,111.673z M241.59,111.226L241.59,111.226
		h0.539c0.397,0,1.079,0.07,1.079-0.379c0-0.307-0.431-0.379-0.789-0.379h-0.829V111.226z M242.237,113.871L242.237,113.871
		c1.293,0,2.411-1.03,2.411-2.302c0-1.303-1.118-2.301-2.411-2.301c-1.329,0-2.444,0.998-2.444,2.301
		C239.792,112.839,240.907,113.871,242.237,113.871z M240.692,113.871L240.692,113.871c-0.789-0.481-1.33-1.34-1.33-2.302
		c0-1.512,1.258-2.746,2.875-2.746c1.584,0,2.879,1.235,2.879,2.746c0,0.962-0.542,1.82-1.367,2.302H240.692z M236.123,113.871
		L236.123,113.871l0.182-0.411l0.214,0.411H236.123z M230.479,113.871L230.479,113.871v-0.139l1.293-0.066v0.066v0.139H230.479z
		 M228.033,113.871L228.033,113.871v-0.139h1.402v0.139H228.033z M223.826,113.871L223.826,113.871v-0.139h1.436v0.139H223.826z
		 M219.258,113.871L219.258,113.871l0.179-0.411l0.215,0.411H219.258z M210.591,113.871L210.591,113.871v-0.139h1.51
		c0.54,0,1.116,0,1.582,0.139H210.591z M195.952,113.871L195.952,113.871v-0.067h1.262h0.466c0.18,0,0.325,0.032,0.468,0.032
		c0.144,0,0.286,0.035,0.396,0.035H195.952z M190.74,113.871L190.74,113.871v-0.067h0.288h4.026v0.067H190.74z M185.848,113.871
		L185.848,113.871c0.466-0.139,0.935-0.239,1.402-0.239s0.898,0.068,1.294,0.172c0.074,0.032,0.144,0.032,0.218,0.067H185.848z
		 M181.101,113.871L181.101,113.871v-0.067h1.151v0.067H181.101z M175.348,113.871L175.348,113.871v-0.346l0.36,0.346H175.348z
		 M171.282,113.871L171.282,113.871l0.107-0.275l0.144,0.275H171.282z M163.839,113.871L163.839,113.871
		c0.431-0.139,0.936-0.239,1.401-0.239c0.469,0,0.935,0.068,1.328,0.172c0.076,0.032,0.146,0.032,0.183,0.067H163.839z
		 M155.206,113.871L155.206,113.871l0.145-0.378l0.108,0.378H155.206z M149.921,113.871L149.921,113.871l0.071-0.378l0.18,0.378
		H149.921z M142.584,113.871L142.584,113.871c0.215-0.067,0.469-0.104,0.685-0.139c0.216-0.032,0.431-0.066,0.646-0.066
		c0.433,0,0.9,0.066,1.366,0.205H142.584z M135.247,113.871c0.108-0.035,0.253-0.067,0.359-0.104
		c0.361-0.067,0.687-0.137,1.043-0.137c0.471,0,0.901,0.069,1.297,0.173c0.035,0.033,0.106,0.033,0.178,0.068H135.247
		L135.247,113.871z"/>
	<path fill="#00529B" d="M94.68,36.912c0,0-5.295,2.161-6.383,3.285c0,0-3.53,2.075-4.708,5.273c0,0-2.443,6.914-2.353,9.161
		c0,0-0.091,6.137,0.996,7.953c0,0,1.811,6.307,8.417,10.455c0,0,3.803,1.213,10.592,1.472c0,0,5.25,0.261,9.054-2.421
		c0,0,2.715-2.249,3.709-2.679c0,0,1.358-1.468,1.901-2.163c0,0,3.259-5.188,4.255-7.346c0,0,2.807-6.827,4.527-7.864
		c0,0-4.707-0.347-7.515-0.26c0,0-3.802,0.088-4.164,0.951c0,0-0.089,0.174-0.904-0.778c0,0-1.359-2.075-0.091-3.716
		c0,0,3.258-5.097,2.896-6.74c0,0-4.435-4.412-8.69-4.929C106.221,36.566,96.53,36.047,94.68,36.912"/>
	<path fill="#009D57" d="M141.436,39.678c0,0-6.429,8.815-7.333,11.062c0,0-7.604,12.273-10.41,13.05l1.81,1.99l-0.091,0.778
		l-0.364,0.778c0,0-2.172,3.801-5.066,5.359c0,0-6.429,4.665-6.88,5.357l-0.544,0.173l-0.452-0.689l-0.635-0.604
		c0,0-3.44,1.47-4.074,2.073l-16.021-1.729l-2.989-2.94c0,0-1.086-0.864-1.993,0.088c0,0-3.622-4.926-8.328-7.432
		c0,0-4.164-3.111-5.974-4.408c0,0-4.799-3.546-5.25-7.091c0,0-8.147-0.862-17.562,13.918c0,0-2.534,2.332,0.364,8.038
		c0,0,2.622,6.741,8.868,11.582c0,0,6.88,5.617,9.959,7.259c0,0,8.6,5.447,9.232,6.14l0.727,16.766c0,0,3.713,1.212,4.978,1.731
		c0,0,8.508,1.641,10.498,6.652c0,0,12.312,2.248,28.697-8.21c0,0-4.705-4.063-5.157-12.273c0,0-0.636-7.001-0.725-7.606
		c-0.091-0.604,15.479-5.528,18.649-28.863c0,0,2.806-5.966,3.618-10.634C138.99,59.992,141.072,41.664,141.436,39.678"/>
</g>
</svg>
